<svg width="101" height="52" viewBox="0 0 101 52" fill="none" xmlns="http://www.w3.org/2000/svg">
<path d="M4.05 18.75V1.7L5.15 2.55H8.41916e-07V0.5H6.45V18.75H4.05ZM18.748 19.2C17.3814 19.2 16.2147 18.9667 15.248 18.5C14.298 18.0167 13.523 17.3667 12.923 16.55C12.3397 15.7333 11.9147 14.7917 11.648 13.725C11.3814 12.6417 11.248 11.5 11.248 10.3V8.95C11.248 7.26667 11.5064 5.75 12.023 4.4C12.5564 3.05 13.373 1.98333 14.473 1.2C15.5897 0.399999 17.0147 -1.49012e-06 18.748 -1.49012e-06C20.4814 -1.49012e-06 21.898 0.399999 22.998 1.2C24.098 1.98333 24.9064 3.05 25.423 4.4C25.9564 5.75 26.223 7.26667 26.223 8.95V10.3C26.223 11.5 26.0897 12.6417 25.823 13.725C25.5564 14.7917 25.123 15.7333 24.523 16.55C23.9397 17.3667 23.173 18.0167 22.223 18.5C21.273 18.9667 20.1147 19.2 18.748 19.2ZM18.748 17C20.4814 17 21.748 16.4167 22.548 15.25C23.3647 14.0667 23.773 12.2 23.773 9.65C23.773 6.98333 23.3564 5.075 22.523 3.925C21.7064 2.775 20.448 2.2 18.748 2.2C17.0314 2.2 15.7564 2.775 14.923 3.925C14.1064 5.075 13.698 6.96667 13.698 9.6C13.698 12.1667 14.1064 14.0417 14.923 15.225C15.7397 16.4083 17.0147 17 18.748 17ZM39.5271 18.75L34.5021 12.525H32.3021L38.4271 5.4H40.9521L35.4021 11.825L35.5771 10.55L42.3022 18.75H39.5271ZM30.3271 18.75V0.5H32.7271V18.75H30.3271ZM48.7082 16.1V4.2H50.7582V16.1H48.7082ZM44.0082 11.1V9.2H55.4582V11.1H44.0082Z" fill="#00BEAE"/>
<path d="M7.525 51.2C6.00833 51.2 4.71667 50.95 3.65 50.45C2.58333 49.95 1.76667 49.2583 1.2 48.375C0.633334 47.4917 0.350001 46.4917 0.350001 45.375H2.8C2.8 45.925 2.94167 46.475 3.225 47.025C3.525 47.575 4.01667 48.0333 4.7 48.4C5.4 48.7667 6.34167 48.95 7.525 48.95C8.625 48.95 9.525 48.7917 10.225 48.475C10.925 48.1417 11.4417 47.7167 11.775 47.2C12.1083 46.6667 12.275 46.0917 12.275 45.475C12.275 44.725 11.95 44.1083 11.3 43.625C10.65 43.125 9.7 42.8167 8.45 42.7L6.425 42.525C4.80833 42.3917 3.51667 41.8917 2.55 41.025C1.58333 40.1583 1.1 39.0167 1.1 37.6C1.1 36.4833 1.36667 35.5083 1.9 34.675C2.45 33.8417 3.20833 33.1917 4.175 32.725C5.14167 32.2417 6.26667 32 7.55 32C8.81667 32 9.93333 32.2333 10.9 32.7C11.8667 33.1667 12.6167 33.825 13.15 34.675C13.7 35.5083 13.975 36.5083 13.975 37.675H11.525C11.525 37.0917 11.3833 36.5417 11.1 36.025C10.8333 35.5083 10.4083 35.0833 9.825 34.75C9.24167 34.4167 8.48333 34.25 7.55 34.25C6.65 34.25 5.9 34.4083 5.3 34.725C4.71667 35.0417 4.275 35.4583 3.975 35.975C3.69167 36.475 3.55 37.0167 3.55 37.6C3.55 38.2667 3.80833 38.8583 4.325 39.375C4.84167 39.8917 5.60833 40.1917 6.625 40.275L8.65 40.45C9.9 40.55 10.975 40.8167 11.875 41.25C12.7917 41.6667 13.4917 42.2333 13.975 42.95C14.475 43.65 14.725 44.4917 14.725 45.475C14.725 46.5917 14.425 47.5833 13.825 48.45C13.225 49.3167 12.3833 49.9917 11.3 50.475C10.2167 50.9583 8.95833 51.2 7.525 51.2ZM23.6863 50.9C22.6863 50.9 21.8197 50.7583 21.0863 50.475C20.3697 50.1917 19.8113 49.7083 19.4113 49.025C19.028 48.325 18.8363 47.3833 18.8363 46.2V33.35H21.1363V46.5C21.1363 47.2167 21.328 47.775 21.7113 48.175C22.1113 48.5583 22.6697 48.75 23.3863 48.75H25.7363V50.9H23.6863ZM16.5363 39.2V37.4H25.7363V39.2H16.5363ZM33.7559 51.15C32.1725 51.15 30.9559 50.6333 30.1059 49.6C29.2559 48.5667 28.8309 47.075 28.8309 45.125V37.375H31.2309V45.6C31.2309 46.65 31.5142 47.475 32.0809 48.075C32.6475 48.6583 33.4142 48.95 34.3809 48.95C35.3809 48.95 36.1975 48.6333 36.8309 48C37.4642 47.35 37.7809 46.4667 37.7809 45.35V37.375H40.1809V50.75H38.2809V45.025H38.5809C38.5809 46.3417 38.4059 47.4583 38.0559 48.375C37.7059 49.275 37.1809 49.9667 36.4809 50.45C35.7975 50.9167 34.9225 51.15 33.8559 51.15H33.7559ZM50.4041 51.2C49.4541 51.2 48.5791 51.025 47.7791 50.675C46.9791 50.325 46.2791 49.8333 45.6791 49.2C45.0958 48.5667 44.6374 47.8333 44.3041 47C43.9874 46.1667 43.8291 45.2667 43.8291 44.3V43.85C43.8291 42.9 43.9874 42.0083 44.3041 41.175C44.6208 40.3417 45.0624 39.6083 45.6291 38.975C46.2124 38.3417 46.8958 37.85 47.6791 37.5C48.4791 37.1333 49.3624 36.95 50.3291 36.95C51.3458 36.95 52.2708 37.1667 53.1041 37.6C53.9374 38.0167 54.6208 38.675 55.1541 39.575C55.6874 40.475 55.9874 41.6417 56.0541 43.075L55.0541 41.475V32.5H57.4541V50.75H55.5541V44.825H56.2541C56.1874 46.3417 55.8708 47.575 55.3041 48.525C54.7374 49.4583 54.0208 50.1417 53.1541 50.575C52.3041 50.9917 51.3874 51.2 50.4041 51.2ZM50.7291 49.1C51.5458 49.1 52.2874 48.9167 52.9541 48.55C53.6208 48.1833 54.1541 47.6583 54.5541 46.975C54.9541 46.275 55.1541 45.4583 55.1541 44.525V43.375C55.1541 42.4583 54.9458 41.6833 54.5291 41.05C54.1291 40.4 53.5874 39.9083 52.9041 39.575C52.2374 39.225 51.5041 39.05 50.7041 39.05C49.8208 39.05 49.0374 39.2583 48.3541 39.675C47.6874 40.0917 47.1624 40.675 46.7791 41.425C46.4124 42.175 46.2291 43.0583 46.2291 44.075C46.2291 45.0917 46.4208 45.9833 46.8041 46.75C47.1874 47.5 47.7208 48.0833 48.4041 48.5C49.0874 48.9 49.8624 49.1 50.7291 49.1ZM67.7404 51.2C66.5738 51.2 65.5654 51 64.7154 50.6C63.8654 50.2 63.1738 49.675 62.6404 49.025C62.1071 48.3583 61.7071 47.6167 61.4404 46.8C61.1904 45.9833 61.0654 45.15 61.0654 44.3V43.85C61.0654 42.9833 61.1904 42.1417 61.4404 41.325C61.7071 40.5083 62.1071 39.775 62.6404 39.125C63.1738 38.4583 63.8488 37.9333 64.6654 37.55C65.4988 37.15 66.4738 36.95 67.5904 36.95C69.0404 36.95 70.2321 37.2667 71.1654 37.9C72.1154 38.5167 72.8154 39.3167 73.2654 40.3C73.7321 41.2833 73.9654 42.3333 73.9654 43.45V44.525H62.1154V42.725H72.2154L71.6654 43.7C71.6654 42.75 71.5154 41.9333 71.2154 41.25C70.9154 40.55 70.4654 40.0083 69.8654 39.625C69.2654 39.2417 68.5071 39.05 67.5904 39.05C66.6404 39.05 65.8488 39.2667 65.2154 39.7C64.5988 40.1333 64.1321 40.725 63.8154 41.475C63.5154 42.225 63.3654 43.0917 63.3654 44.075C63.3654 45.025 63.5154 45.8833 63.8154 46.65C64.1321 47.4 64.6154 48 65.2654 48.45C65.9154 48.8833 66.7404 49.1 67.7404 49.1C68.7904 49.1 69.6404 48.8667 70.2904 48.4C70.9571 47.9333 71.3571 47.3917 71.4904 46.775H73.7404C73.5571 47.6917 73.1904 48.4833 72.6404 49.15C72.0904 49.8167 71.3988 50.325 70.5654 50.675C69.7321 51.025 68.7904 51.2 67.7404 51.2ZM77.373 50.75V37.4H79.273V43.125H78.973C78.973 41.8083 79.148 40.7 79.498 39.8C79.8647 38.8833 80.4147 38.1917 81.148 37.725C81.8814 37.2417 82.8064 37 83.923 37H84.023C85.7064 37 86.948 37.525 87.748 38.575C88.5647 39.625 88.973 41.1417 88.973 43.125V50.75H86.573V42.625C86.573 41.5917 86.2814 40.7667 85.698 40.15C85.1147 39.5167 84.3147 39.2 83.298 39.2C82.248 39.2 81.398 39.525 80.748 40.175C80.098 40.825 79.773 41.6917 79.773 42.775V50.75H77.373ZM98.5643 50.9C97.5643 50.9 96.6976 50.7583 95.9643 50.475C95.2476 50.1917 94.6893 49.7083 94.2893 49.025C93.9059 48.325 93.7143 47.3833 93.7143 46.2V33.35H96.0143V46.5C96.0143 47.2167 96.2059 47.775 96.5893 48.175C96.9893 48.5583 97.5476 48.75 98.2643 48.75H100.614V50.9H98.5643ZM91.4143 39.2V37.4H100.614V39.2H91.4143Z" fill="#17254E"/>
</svg>
